STARTFONT 2.1
COMMENT Created by fdbbdf
FONT gofont10
SIZE 10 78 78
FONTBOUNDINGBOX 16 16 0 -16
STARTPROPERTIES 4
Ownership "  "
FONT_ASCENT 0
FONT_DESCENT 16
DEFAULT_CHAR 32
ENDPROPERTIES
CHARS 120
STARTCHAR ch-0
ENCODING -1 0
SWIDTH 0 0
DWIDTH 6 0
BBX 5 7 1 -7
BITMAP
f800
f800
f800
f800
f800
f800
f800
ENDCHAR
STARTCHAR ch-1
ENCODING -1 1
SWIDTH 0 0
DWIDTH 10 0
BBX 9 9 0 -9
BITMAP
8080
4100
2200
1c00
1c00
1c00
2200
4100
8080
ENDCHAR
STARTCHAR ch-2
ENCODING -1 2
SWIDTH 0 0
DWIDTH 12 0
BBX 11 11 0 -11
BITMAP
ffe0
a0a0
d160
aaa0
9520
8a20
9520
aaa0
d160
a0a0
ffe0
ENDCHAR
STARTCHAR ch-3
ENCODING -1 3
SWIDTH 0 0
DWIDTH 12 0
BBX 11 11 0 -11
BITMAP
c060
a0a0
5140
2a80
1f00
0a00
1f00
2a80
5140
a0a0
c060
ENDCHAR
STARTCHAR ch-4
ENCODING -1 4
SWIDTH 0 0
DWIDTH 12 0
BBX 11 11 0 -11
BITMAP
ffe0
bfa0
df60
eee0
f1e0
f1e0
f1e0
eee0
df60
bfa0
ffe0
ENDCHAR
STARTCHAR ch-5
ENCODING -1 5
SWIDTH 0 0
DWIDTH 12 0
BBX 11 11 0 -11
BITMAP
c060
a0a0
5140
2a80
1b00
0000
1b00
2a80
5140
a0a0
c060
ENDCHAR
STARTCHAR ch-6
ENCODING -1 6
SWIDTH 0 0
DWIDTH 12 0
BBX 11 11 0 -11
BITMAP
c060
a0a0
5140
2a80
1100
0400
1100
2a80
5140
a0a0
c060
ENDCHAR
STARTCHAR ch-7
ENCODING -1 7
SWIDTH 0 0
DWIDTH 12 0
BBX 11 11 0 -11
BITMAP
c060
a0a0
5140
3180
0000
0400
0000
3180
5140
a0a0
c060
ENDCHAR
STARTCHAR ch-8
ENCODING -1 8
SWIDTH 0 0
DWIDTH 12 0
BBX 11 11 0 -11
BITMAP
db60
a4a0
6ac0
9120
aea0
4a40
aea0
9120
6ac0
a4a0
db60
ENDCHAR
STARTCHAR ch-9
ENCODING -1 9
SWIDTH 0 0
DWIDTH 6 0
BBX 5 9 1 -9
BITMAP
e000
4000
4000
4000
3800
2800
3000
2800
3800
ENDCHAR
STARTCHAR ch-10
ENCODING -1 10
SWIDTH 0 0
DWIDTH 12 0
BBX 11 11 0 -11
BITMAP
ca60
aaa0
5b40
3180
eae0
0400
eae0
3180
5b40
aaa0
ca60
ENDCHAR
STARTCHAR ch-11
ENCODING -1 11
SWIDTH 0 0
DWIDTH 12 0
BBX 11 11 0 -11
BITMAP
db60
aaa0
5540
aaa0
db60
2480
db60
aaa0
5540
aaa0
db60
ENDCHAR
STARTCHAR ch-12
ENCODING -1 12
SWIDTH 0 0
DWIDTH 12 0
BBX 11 11 0 -11
BITMAP
db60
aea0
5b40
b5a0
eae0
5540
eae0
b5a0
5b40
aea0
db60
ENDCHAR
STARTCHAR ch-13
ENCODING -1 13
SWIDTH 0 0
DWIDTH 16 0
BBX 16 16 0 -16
BITMAP
e000
f000
f800
7e00
3c00
1a00
1500
0280
0140
00a0
0060
0010
0000
0004
0000
0001
ENDCHAR
STARTCHAR ch-15
ENCODING -1 15
SWIDTH 0 0
DWIDTH 16 0
BBX 16 14 0 -14
BITMAP
0001
0000
000f
0008
000b
0ff8
3000
4000
9e00
8000
9e00
4000
3000
0fff
ENDCHAR
STARTCHAR ch-16
ENCODING -1 16
SWIDTH 0 0
DWIDTH 16 0
BBX 16 14 0 -14
BITMAP
8000
a000
f000
1000
903c
1fff
0000
0000
0000
0000
0000
0000
0000
ffff
ENDCHAR
STARTCHAR ch-17
ENCODING -1 17
SWIDTH 0 0
DWIDTH 16 0
BBX 16 13 0 -13
BITMAP
00f0
07f0
fff2
07f5
00f5
001d
07e6
001d
00f5
07f5
fff2
07f0
00f0
ENDCHAR
STARTCHAR ch-19
ENCODING -1 19
SWIDTH 0 0
DWIDTH 16 0
BBX 4 16 0 -16
BITMAP
2000
7000
e000
4000
0000
6000
6000
6000
6000
0000
4000
e000
7000
2000
0000
f000
ENDCHAR
STARTCHAR ch-20
ENCODING -1 20
SWIDTH 0 0
DWIDTH 10 0
BBX 5 5 0 -5
BITMAP
f800
a800
d800
a800
f800
ENDCHAR
STARTCHAR ch-21
ENCODING -1 21
SWIDTH 0 0
DWIDTH 16 0
BBX 3 16 0 -16
BITMAP
4000
4000
a000
a000
a000
a000
a000
e000
0000
4000
4000
0000
4000
0000
0000
4000
ENDCHAR
STARTCHAR ch-22
ENCODING -1 22
SWIDTH 0 0
DWIDTH 16 0
BBX 16 16 0 -16
BITMAP
8041
0200
2854
0400
0a49
21b0
06c4
52b0
0561
8ac0
2168
0a12
0140
2404
8010
1082
ENDCHAR
STARTCHAR ch-23
ENCODING -1 23
SWIDTH 0 0
DWIDTH 16 0
BBX 8 8 4 -8
BITMAP
1400
4200
5200
3d00
ab00
5800
0200
5400
ENDCHAR
STARTCHAR ch-24
ENCODING -1 24
SWIDTH 0 0
DWIDTH 6 0
BBX 5 5 1 -5
BITMAP
2000
4000
f800
4000
2000
ENDCHAR
STARTCHAR ch-25
ENCODING -1 25
SWIDTH 0 0
DWIDTH 6 0
BBX 5 5 1 -5
BITMAP
2000
1000
f800
1000
2000
ENDCHAR
STARTCHAR ch-26
ENCODING -1 26
SWIDTH 0 0
DWIDTH 6 0
BBX 5 7 1 -7
BITMAP
0800
1000
f800
2000
f800
4000
8000
ENDCHAR
STARTCHAR ch-27
ENCODING -1 27
SWIDTH 0 0
DWIDTH 6 0
BBX 5 5 1 -5
BITMAP
2000
5000
8800
5000
2000
ENDCHAR
STARTCHAR sp
ENCODING -1 32
SWIDTH 0 0
DWIDTH 6 0
BBX 0 0 0 0
BITMAP
ENDCHAR
STARTCHAR !
ENCODING -1 33
SWIDTH 0 0
DWIDTH 15 0
BBX 15 16 0 -16
BITMAP
07c0
1c70
3018
600c
4004
c006
8002
8002
8002
c006
4004
600c
3018
1c70
07c0
0100
ENDCHAR
STARTCHAR "
ENCODING -1 34
SWIDTH 0 0
DWIDTH 6 0
BBX 3 3 2 -3
BITMAP
a000
a000
a000
ENDCHAR
STARTCHAR #
ENCODING -1 35
SWIDTH 0 0
DWIDTH 6 0
BBX 5 5 1 -5
BITMAP
5000
f800
5000
f800
5000
ENDCHAR
STARTCHAR $
ENCODING -1 36
SWIDTH 0 0
DWIDTH 6 0
BBX 5 7 1 -7
BITMAP
7000
a800
a000
7000
2800
a800
7000
ENDCHAR
STARTCHAR %
ENCODING -1 37
SWIDTH 0 0
DWIDTH 6 0
BBX 5 9 1 -9
BITMAP
e000
a000
e800
1000
2000
4000
b800
2800
3800
ENDCHAR
STARTCHAR &
ENCODING -1 38
SWIDTH 0 0
DWIDTH 15 0
BBX 15 16 0 -16
BITMAP
07c0
1ff0
3ff8
7ffc
7ffc
fffe
fffe
fffe
fffe
fffe
7ffc
7ffc
3ff8
1ff0
07c0
0100
ENDCHAR
STARTCHAR '
ENCODING -1 39
SWIDTH 0 0
DWIDTH 6 0
BBX 1 3 3 -3
BITMAP
8000
8000
8000
ENDCHAR
STARTCHAR (
ENCODING -1 40
SWIDTH 0 0
DWIDTH 6 0
BBX 3 8 2 -8
BITMAP
2000
4000
8000
8000
8000
8000
4000
2000
ENDCHAR
STARTCHAR )
ENCODING -1 41
SWIDTH 0 0
DWIDTH 6 0
BBX 3 8 1 -8
BITMAP
8000
4000
2000
2000
2000
2000
4000
8000
ENDCHAR
STARTCHAR *
ENCODING -1 42
SWIDTH 0 0
DWIDTH 6 0
BBX 5 5 1 -5
BITMAP
5000
2000
f800
2000
5000
ENDCHAR
STARTCHAR +
ENCODING -1 43
SWIDTH 0 0
DWIDTH 6 0
BBX 5 5 1 -5
BITMAP
2000
2000
f800
2000
2000
ENDCHAR
STARTCHAR ,
ENCODING -1 44
SWIDTH 0 0
DWIDTH 6 0
BBX 2 3 1 -3
BITMAP
4000
4000
8000
ENDCHAR
STARTCHAR -
ENCODING -1 45
SWIDTH 0 0
DWIDTH 6 0
BBX 5 1 1 -1
BITMAP
f800
ENDCHAR
STARTCHAR .
ENCODING -1 46
SWIDTH 0 0
DWIDTH 6 0
BBX 2 2 2 -2
BITMAP
c000
c000
ENDCHAR
STARTCHAR /
ENCODING -1 47
SWIDTH 0 0
DWIDTH 6 0
BBX 4 8 1 -8
BITMAP
1000
1000
2000
2000
4000
4000
8000
8000
ENDCHAR
STARTCHAR 0
ENCODING -1 48
SWIDTH 0 0
DWIDTH 6 0
BBX 5 7 1 -7
BITMAP
7000
9800
a800
a800
a800
c800
7000
ENDCHAR
STARTCHAR 1
ENCODING -1 49
SWIDTH 0 0
DWIDTH 6 0
BBX 3 7 2 -7
BITMAP
4000
c000
4000
4000
4000
4000
e000
ENDCHAR
STARTCHAR 2
ENCODING -1 50
SWIDTH 0 0
DWIDTH 6 0
BBX 5 7 1 -7
BITMAP
7000
8800
0800
3000
4000
8000
f800
ENDCHAR
STARTCHAR 3
ENCODING -1 51
SWIDTH 0 0
DWIDTH 6 0
BBX 5 7 1 -7
BITMAP
7000
8800
0800
3000
0800
8800
7000
ENDCHAR
STARTCHAR 4
ENCODING -1 52
SWIDTH 0 0
DWIDTH 6 0
BBX 5 7 1 -7
BITMAP
1000
3000
5000
9000
f800
1000
1000
ENDCHAR
STARTCHAR 5
ENCODING -1 53
SWIDTH 0 0
DWIDTH 6 0
BBX 5 7 1 -7
BITMAP
f800
8000
f000
0800
0800
8800
7000
ENDCHAR
STARTCHAR 6
ENCODING -1 54
SWIDTH 0 0
DWIDTH 6 0
BBX 5 7 1 -7
BITMAP
7000
8800
8000
f000
8800
8800
7000
ENDCHAR
STARTCHAR 7
ENCODING -1 55
SWIDTH 0 0
DWIDTH 6 0
BBX 5 7 1 -7
BITMAP
f800
0800
1000
2000
4000
4000
4000
ENDCHAR
STARTCHAR 8
ENCODING -1 56
SWIDTH 0 0
DWIDTH 6 0
BBX 5 7 1 -7
BITMAP
7000
8800
8800
7000
8800
8800
7000
ENDCHAR
STARTCHAR 9
ENCODING -1 57
SWIDTH 0 0
DWIDTH 6 0
BBX 5 7 1 -7
BITMAP
7000
8800
8800
7800
0800
0800
0800
ENDCHAR
STARTCHAR :
ENCODING -1 58
SWIDTH 0 0
DWIDTH 6 0
BBX 2 5 2 -5
BITMAP
c000
c000
0000
c000
c000
ENDCHAR
STARTCHAR ;
ENCODING -1 59
SWIDTH 0 0
DWIDTH 15 0
BBX 8 8 7 -16
BITMAP
ff00
8000
8000
8000
8000
8000
8000
8000
ENDCHAR
STARTCHAR <
ENCODING -1 60
SWIDTH 0 0
DWIDTH 15 0
BBX 15 8 0 -16
BITMAP
fffe
0100
0100
0100
0100
0100
0100
0100
ENDCHAR
STARTCHAR =
ENCODING -1 61
SWIDTH 0 0
DWIDTH 15 0
BBX 8 8 0 -16
BITMAP
ff00
0100
0100
0100
0100
0100
0100
0100
ENDCHAR
STARTCHAR >
ENCODING -1 62
SWIDTH 0 0
DWIDTH 6 0
BBX 4 7 1 -7
BITMAP
8000
4000
2000
1000
2000
4000
8000
ENDCHAR
STARTCHAR ?
ENCODING -1 63
SWIDTH 0 0
DWIDTH 6 0
BBX 5 8 1 -8
BITMAP
7000
8800
8800
1000
2000
2000
0000
2000
ENDCHAR
STARTCHAR @
ENCODING -1 64
SWIDTH 0 0
DWIDTH 6 0
BBX 5 7 1 -7
BITMAP
7000
8800
b800
a800
b800
8000
7000
ENDCHAR
STARTCHAR A
ENCODING -1 65
SWIDTH 0 0
DWIDTH 6 0
BBX 5 7 1 -7
BITMAP
7000
8800
8800
f800
8800
8800
8800
ENDCHAR
STARTCHAR B
ENCODING -1 66
SWIDTH 0 0
DWIDTH 6 0
BBX 5 7 1 -7
BITMAP
f000
8800
8800
f000
8800
8800
f000
ENDCHAR
STARTCHAR C
ENCODING -1 67
SWIDTH 0 0
DWIDTH 6 0
BBX 5 7 1 -7
BITMAP
7000
8800
8000
8000
8000
8800
7000
ENDCHAR
STARTCHAR D
ENCODING -1 68
SWIDTH 0 0
DWIDTH 6 0
BBX 5 7 1 -7
BITMAP
f000
8800
8800
8800
8800
8800
f000
ENDCHAR
STARTCHAR E
ENCODING -1 69
SWIDTH 0 0
DWIDTH 6 0
BBX 5 7 1 -7
BITMAP
f800
8000
8000
f000
8000
8000
f800
ENDCHAR
STARTCHAR F
ENCODING -1 70
SWIDTH 0 0
DWIDTH 6 0
BBX 5 7 1 -7
BITMAP
f800
8000
8000
f000
8000
8000
8000
ENDCHAR
STARTCHAR G
ENCODING -1 71
SWIDTH 0 0
DWIDTH 6 0
BBX 5 7 1 -7
BITMAP
7000
8800
8000
8000
9800
8800
7000
ENDCHAR
STARTCHAR H
ENCODING -1 72
SWIDTH 0 0
DWIDTH 6 0
BBX 5 7 1 -7
BITMAP
8800
8800
8800
f800
8800
8800
8800
ENDCHAR
STARTCHAR I
ENCODING -1 73
SWIDTH 0 0
DWIDTH 6 0
BBX 3 7 2 -7
BITMAP
e000
4000
4000
4000
4000
4000
e000
ENDCHAR
STARTCHAR J
ENCODING -1 74
SWIDTH 0 0
DWIDTH 6 0
BBX 5 7 1 -7
BITMAP
0800
0800
0800
0800
0800
8800
7000
ENDCHAR
STARTCHAR K
ENCODING -1 75
SWIDTH 0 0
DWIDTH 6 0
BBX 5 7 1 -7
BITMAP
8800
9000
a000
c000
a000
9000
8800
ENDCHAR
STARTCHAR L
ENCODING -1 76
SWIDTH 0 0
DWIDTH 6 0
BBX 5 7 1 -7
BITMAP
8000
8000
8000
8000
8000
8000
f800
ENDCHAR
STARTCHAR M
ENCODING -1 77
SWIDTH 0 0
DWIDTH 6 0
BBX 5 7 1 -7
BITMAP
8800
d800
a800
8800
8800
8800
8800
ENDCHAR
STARTCHAR N
ENCODING -1 78
SWIDTH 0 0
DWIDTH 6 0
BBX 5 7 1 -7
BITMAP
8800
8800
c800
a800
9800
8800
8800
ENDCHAR
STARTCHAR O
ENCODING -1 79
SWIDTH 0 0
DWIDTH 6 0
BBX 5 7 1 -7
BITMAP
7000
8800
8800
8800
8800
8800
7000
ENDCHAR
STARTCHAR P
ENCODING -1 80
SWIDTH 0 0
DWIDTH 6 0
BBX 5 7 1 -7
BITMAP
f000
8800
8800
f000
8000
8000
8000
ENDCHAR
STARTCHAR Q
ENCODING -1 81
SWIDTH 0 0
DWIDTH 6 0
BBX 5 7 1 -7
BITMAP
7000
8800
8800
8800
8800
9000
6800
ENDCHAR
STARTCHAR R
ENCODING -1 82
SWIDTH 0 0
DWIDTH 6 0
BBX 5 7 1 -7
BITMAP
f000
8800
8800
f000
a000
9000
8800
ENDCHAR
STARTCHAR S
ENCODING -1 83
SWIDTH 0 0
DWIDTH 6 0
BBX 5 7 1 -7
BITMAP
7000
8800
8000
7000
0800
8800
7000
ENDCHAR
STARTCHAR T
ENCODING -1 84
SWIDTH 0 0
DWIDTH 6 0
BBX 5 7 1 -7
BITMAP
f800
2000
2000
2000
2000
2000
2000
ENDCHAR
STARTCHAR U
ENCODING -1 85
SWIDTH 0 0
DWIDTH 6 0
BBX 5 7 1 -7
BITMAP
8800
8800
8800
8800
8800
8800
7000
ENDCHAR
STARTCHAR V
ENCODING -1 86
SWIDTH 0 0
DWIDTH 6 0
BBX 5 7 1 -7
BITMAP
8800
8800
8800
8800
8800
5000
2000
ENDCHAR
STARTCHAR W
ENCODING -1 87
SWIDTH 0 0
DWIDTH 6 0
BBX 5 7 1 -7
BITMAP
8800
8800
8800
8800
a800
d800
8800
ENDCHAR
STARTCHAR X
ENCODING -1 88
SWIDTH 0 0
DWIDTH 6 0
BBX 5 7 1 -7
BITMAP
8800
8800
5000
2000
5000
8800
8800
ENDCHAR
STARTCHAR Y
ENCODING -1 89
SWIDTH 0 0
DWIDTH 6 0
BBX 5 7 1 -7
BITMAP
8800
8800
5000
2000
2000
2000
2000
ENDCHAR
STARTCHAR Z
ENCODING -1 90
SWIDTH 0 0
DWIDTH 6 0
BBX 5 7 1 -7
BITMAP
f800
0800
1000
2000
4000
8000
f800
ENDCHAR
STARTCHAR [
ENCODING -1 91
SWIDTH 0 0
DWIDTH 15 0
BBX 8 16 7 -16
BITMAP
8000
8000
8000
8000
8000
8000
8000
ff00
8000
8000
8000
8000
8000
8000
8000
8000
ENDCHAR
STARTCHAR \
ENCODING -1 92
SWIDTH 0 0
DWIDTH 15 0
BBX 15 16 0 -16
BITMAP
0100
0100
0100
0100
0100
0100
0100
fffe
0100
0100
0100
0100
0100
0100
0100
0100
ENDCHAR
STARTCHAR ]
ENCODING -1 93
SWIDTH 0 0
DWIDTH 15 0
BBX 8 16 0 -16
BITMAP
0100
0100
0100
0100
0100
0100
0100
ff00
0100
0100
0100
0100
0100
0100
0100
0100
ENDCHAR
STARTCHAR ^
ENCODING -1 94
SWIDTH 0 0
DWIDTH 15 0
BBX 15 16 0 -16
BITMAP
0100
0100
0100
0100
0100
0100
0380
fffe
0380
0100
0100
0100
0100
0100
0100
0100
ENDCHAR
STARTCHAR _
ENCODING -1 95
SWIDTH 0 0
DWIDTH 10 0
BBX 9 10 0 -10
BITMAP
5500
aa80
5500
aa80
5500
aa80
5500
aa80
5500
aa80
ENDCHAR
STARTCHAR a
ENCODING -1 97
SWIDTH 0 0
DWIDTH 6 0
BBX 5 5 1 -5
BITMAP
7000
9000
9000
9000
6800
ENDCHAR
STARTCHAR b
ENCODING -1 98
SWIDTH 0 0
DWIDTH 6 0
BBX 5 7 1 -7
BITMAP
8000
8000
b000
c800
8800
8800
f000
ENDCHAR
STARTCHAR c
ENCODING -1 99
SWIDTH 0 0
DWIDTH 6 0
BBX 5 5 1 -5
BITMAP
7000
8800
8000
8800
7000
ENDCHAR
STARTCHAR d
ENCODING -1 100
SWIDTH 0 0
DWIDTH 6 0
BBX 5 7 1 -7
BITMAP
0800
0800
7800
8800
8800
8800
7800
ENDCHAR
STARTCHAR e
ENCODING -1 101
SWIDTH 0 0
DWIDTH 6 0
BBX 4 5 1 -5
BITMAP
6000
9000
f000
8000
7000
ENDCHAR
STARTCHAR f
ENCODING -1 102
SWIDTH 0 0
DWIDTH 6 0
BBX 4 7 1 -7
BITMAP
3000
4000
4000
e000
4000
4000
4000
ENDCHAR
STARTCHAR g
ENCODING -1 103
SWIDTH 0 0
DWIDTH 6 0
BBX 5 8 1 -8
BITMAP
7000
8800
8800
8800
7800
0800
8800
7000
ENDCHAR
STARTCHAR h
ENCODING -1 104
SWIDTH 0 0
DWIDTH 6 0
BBX 5 7 1 -7
BITMAP
8000
8000
f000
8800
8800
8800
8800
ENDCHAR
STARTCHAR i
ENCODING -1 105
SWIDTH 0 0
DWIDTH 6 0
BBX 1 6 2 -6
BITMAP
8000
0000
8000
8000
8000
8000
ENDCHAR
STARTCHAR j
ENCODING -1 106
SWIDTH 0 0
DWIDTH 6 0
BBX 3 8 1 -8
BITMAP
2000
0000
2000
2000
2000
2000
2000
c000
ENDCHAR
STARTCHAR k
ENCODING -1 107
SWIDTH 0 0
DWIDTH 6 0
BBX 4 7 1 -7
BITMAP
8000
8000
9000
a000
c000
a000
9000
ENDCHAR
STARTCHAR l
ENCODING -1 108
SWIDTH 0 0
DWIDTH 6 0
BBX 1 7 2 -7
BITMAP
8000
8000
8000
8000
8000
8000
8000
ENDCHAR
STARTCHAR m
ENCODING -1 109
SWIDTH 0 0
DWIDTH 6 0
BBX 5 5 1 -5
BITMAP
d000
a800
a800
a800
a800
ENDCHAR
STARTCHAR n
ENCODING -1 110
SWIDTH 0 0
DWIDTH 6 0
BBX 4 5 1 -5
BITMAP
e000
9000
9000
9000
9000
ENDCHAR
STARTCHAR o
ENCODING -1 111
SWIDTH 0 0
DWIDTH 6 0
BBX 5 5 1 -5
BITMAP
7000
8800
8800
8800
7000
ENDCHAR
STARTCHAR p
ENCODING -1 112
SWIDTH 0 0
DWIDTH 6 0
BBX 5 8 1 -8
BITMAP
f000
8800
8800
8800
f000
8000
8000
8000
ENDCHAR
STARTCHAR q
ENCODING -1 113
SWIDTH 0 0
DWIDTH 6 0
BBX 5 8 1 -8
BITMAP
7800
8800
8800
8800
7800
0800
0800
0800
ENDCHAR
STARTCHAR r
ENCODING -1 114
SWIDTH 0 0
DWIDTH 6 0
BBX 4 5 1 -5
BITMAP
a000
d000
8000
8000
8000
ENDCHAR
STARTCHAR s
ENCODING -1 115
SWIDTH 0 0
DWIDTH 6 0
BBX 4 5 1 -5
BITMAP
7000
8000
6000
1000
e000
ENDCHAR
STARTCHAR t
ENCODING -1 116
SWIDTH 0 0
DWIDTH 6 0
BBX 3 7 1 -7
BITMAP
4000
4000
e000
4000
4000
4000
6000
ENDCHAR
STARTCHAR u
ENCODING -1 117
SWIDTH 0 0
DWIDTH 6 0
BBX 5 5 1 -5
BITMAP
8800
8800
8800
9800
6800
ENDCHAR
STARTCHAR v
ENCODING -1 118
SWIDTH 0 0
DWIDTH 6 0
BBX 5 5 1 -5
BITMAP
8800
8800
8800
5000
2000
ENDCHAR
STARTCHAR w
ENCODING -1 119
SWIDTH 0 0
DWIDTH 6 0
BBX 5 5 1 -5
BITMAP
8800
8800
a800
d800
8800
ENDCHAR
STARTCHAR x
ENCODING -1 120
SWIDTH 0 0
DWIDTH 6 0
BBX 5 5 1 -5
BITMAP
8800
5000
2000
5000
8800
ENDCHAR
STARTCHAR y
ENCODING -1 121
SWIDTH 0 0
DWIDTH 6 0
BBX 5 8 1 -8
BITMAP
8800
8800
8800
8800
7800
0800
0800
7000
ENDCHAR
STARTCHAR z
ENCODING -1 122
SWIDTH 0 0
DWIDTH 6 0
BBX 5 5 1 -5
BITMAP
f800
1000
2000
4000
f800
ENDCHAR
STARTCHAR {
ENCODING -1 123
SWIDTH 0 0
DWIDTH 15 0
BBX 8 8 7 -8
BITMAP
8000
8000
8000
8000
8000
8000
8000
ff00
ENDCHAR
STARTCHAR |
ENCODING -1 124
SWIDTH 0 0
DWIDTH 15 0
BBX 15 8 0 -8
BITMAP
0100
0100
0100
0100
0100
0100
0100
fffe
ENDCHAR
STARTCHAR }
ENCODING -1 125
SWIDTH 0 0
DWIDTH 15 0
BBX 8 8 0 -8
BITMAP
0100
0100
0100
0100
0100
0100
0100
ff00
ENDCHAR
STARTCHAR ~
ENCODING -1 126
SWIDTH 0 0
DWIDTH 6 0
BBX 6 2 0 -2
BITMAP
6400
9800
ENDCHAR
ENDFONT
